<?xml version="1.0" encoding="utf-8"?>
<svg x="0pt" y="0pt" width="600pt" height="600pt" viewBox="0 0 600 600" xmlns="http://www.w3.org/2000/svg" xmlns:xlink="http://www.w3.org/1999/xlink">
  <g id="1">
    <title>Layer 1</title>
    <defs>
      <title>Path</title>
      <g id="2">
        <defs>
          <path id="3" d="M41.8928,67.2012 C41.8928,67.2012,576.717,67.2012,576.717,67.2012 C576.717,67.2012,576.717,575.692,576.717,575.692 C576.717,575.692,41.8928,575.692,41.8928,575.692 C41.8928,575.692,41.8928,67.2012,41.8928,67.2012 z"/>
        </defs>
        <use xlink:href="#3" style="fill:#ffffff;fill-opacity:1;fill-rule:evenodd;opacity:1;stroke:none;"/>
      </g>
    </defs>
    <use xlink:href="#2"/>
    <defs>
      <title>Path</title>
      <g id="4">
        <defs>
          <path id="5" d="M300,127.454 C415.977,127.454,509.995,221.473,509.995,337.452 C509.995,453.431,415.977,547.45,300,547.45 C184.023,547.45,90.0048,453.431,90.0048,337.452 C90.0048,221.473,184.023,127.454,300,127.454 z"/>
        </defs>
        <use xlink:href="#5" style="fill:#ffffff;fill-opacity:1;fill-rule:evenodd;opacity:1;stroke:none;"/>
        <use xlink:href="#5" style="fill:none;opacity:1;stroke:#000000;stroke-linecap:butt;stroke-linejoin:miter;stroke-miterlimit:10;stroke-opacity:1;stroke-width:30;"/>
      </g>
    </defs>
    <use xlink:href="#4"/>
    <defs>
      <title>Path</title>
      <g id="6">
        <defs>
          <path id="7" d="M399.367,450.766 C403.139,450.766,406.197,450.788,406.197,450.816 C406.197,450.844,403.139,450.866,399.367,450.866 C395.594,450.866,392.536,450.844,392.536,450.816 C392.536,450.788,395.594,450.766,399.367,450.766 z"/>
        </defs>
        <use xlink:href="#7" style="fill:#ffffff;fill-opacity:1;fill-rule:evenodd;opacity:1;stroke:none;"/>
      </g>
    </defs>
    <use xlink:href="#6"/>
    <defs>
      <title>Path</title>
      <g id="8">
        <defs>
          <path id="9" d="M444.668,144.13 C444.668,144.13,523.577,169.6,523.577,169.6 C523.577,169.6,529.735,462.67,529.735,462.67 C529.735,462.67,300,337.452,300,337.452 C300,337.452,444.668,144.13,444.668,144.13 z"/>
        </defs>
        <use xlink:href="#9" style="fill:#ffffff;fill-opacity:1;fill-rule:evenodd;opacity:1;stroke:none;"/>
      </g>
    </defs>
    <use xlink:href="#8"/>
    <defs>
      <title>Path</title>
      <g id="10">
        <defs>
          <path id="11" d="M300,191.751 C380.358,191.751,445.5,256.984,445.5,337.452 C445.5,417.921,380.358,483.153,300,483.153 C219.642,483.153,154.5,417.921,154.5,337.452 C154.5,256.984,219.642,191.751,300,191.751 z"/>
        </defs>
        <use xlink:href="#11" style="fill:#ffffff;fill-opacity:1;fill-rule:evenodd;opacity:1;stroke:none;"/>
        <use xlink:href="#11" style="fill:none;opacity:1;stroke:#000000;stroke-linecap:butt;stroke-linejoin:miter;stroke-miterlimit:10;stroke-opacity:1;stroke-width:30;"/>
      </g>
    </defs>
    <use xlink:href="#10"/>
    <defs>
      <title>Path</title>
      <g id="12">
        <defs>
          <path id="13" d="M134.059,266.472 C134.059,266.472,175.45,223.631,175.45,223.631 C175.45,223.631,217.029,184.583,217.029,184.583 C217.029,184.583,230.767,161.911,230.767,161.911 C230.767,161.911,300,337.452,300,337.452 C300,337.452,136.959,423.903,136.959,423.903 C136.959,423.903,119.511,371.991,119.511,371.991 C119.511,371.991,115.073,330.754,115.073,330.754 C115.073,330.754,134.059,266.472,134.059,266.472 z"/>
        </defs>
        <use xlink:href="#13" style="fill:#ffffff;fill-opacity:1;fill-rule:evenodd;opacity:1;stroke:none;"/>
        <use xlink:href="#13" style="fill:none;opacity:1;stroke:#000000;stroke-linecap:butt;stroke-linejoin:miter;stroke-miterlimit:10;stroke-opacity:1;stroke-width:0;"/>
      </g>
    </defs>
    <use xlink:href="#12"/>
    <defs>
      <title>Path</title>
      <g id="14">
        <defs>
          <path id="15" d="M220.996,197.856 C230.353,197.856,237.939,205.466,237.939,214.854 C237.939,224.241,230.353,231.851,220.996,231.851 C211.639,231.851,204.053,224.241,204.053,214.854 C204.053,205.466,211.639,197.856,220.996,197.856 z"/>
        </defs>
        <use xlink:href="#15" style="fill:#000000;fill-opacity:1;fill-rule:evenodd;opacity:1;stroke:none;"/>
      </g>
    </defs>
    <use xlink:href="#14"/>
    <defs>
      <title>Path</title>
      <g id="16">
        <defs>
          <path id="17" d="M216.474,214.854 C216.781,214.854,217.029,214.876,217.029,214.904 C217.029,214.931,216.781,214.954,216.474,214.954 C216.167,214.954,215.918,214.931,215.918,214.904 C215.918,214.876,216.167,214.854,216.474,214.854 z"/>
        </defs>
        <use xlink:href="#17" style="fill:#000000;fill-opacity:1;fill-rule:evenodd;opacity:1;stroke:none;"/>
      </g>
    </defs>
    <use xlink:href="#16"/>
    <defs>
      <title>Path</title>
      <g id="18">
        <defs>
          <path id="19" d="M300,251.002 C347.724,251.002,386.412,289.707,386.412,337.452 C386.412,385.197,347.724,423.903,300,423.903 C252.276,423.903,213.588,385.197,213.588,337.452 C213.588,289.707,252.276,251.002,300,251.002 z"/>
        </defs>
        <use xlink:href="#19" style="fill:#ffffff;fill-opacity:1;fill-rule:evenodd;opacity:1;stroke:none;"/>
        <use xlink:href="#19" style="fill:none;opacity:1;stroke:#440002;stroke-linecap:butt;stroke-linejoin:miter;stroke-miterlimit:10;stroke-opacity:1;stroke-width:30;"/>
      </g>
    </defs>
    <use xlink:href="#18"/>
    <defs>
      <title>Path</title>
      <g id="20">
        <defs>
          <path id="21" d="M342.016,350.552"/>
        </defs>
        <use xlink:href="#21" style="fill:#ffffff;fill-opacity:1;fill-rule:nonzero;opacity:1;stroke:none;"/>
      </g>
    </defs>
    <use xlink:href="#20"/>
    <defs>
      <title>Path</title>
      <g id="22">
        <defs>
          <path id="23" d="M515.779,310.763"/>
        </defs>
        <use xlink:href="#23" style="fill:#ffffff;fill-opacity:1;fill-rule:nonzero;opacity:1;stroke:none;"/>
      </g>
    </defs>
    <use xlink:href="#22"/>
  </g>
</svg>
